REM DIRINDEX 1\2,1\3
REM DIRNAME folder01,folder02,folder03
TITLE ""
FILE "0281-0320.mp3" MP3
  TRACK 01 AUDIO
    TITLE "0:"
    INDEX 01 00:00:00
  TRACK 02 AUDIO
    TITLE "2:cjc039_0281"
    INDEX 01 00:00:21
  TRACK 03 AUDIO
    TITLE "0:"
    INDEX 01 00:01:36
  TRACK 04 AUDIO
    TITLE "2:cjc039_0282"
    INDEX 01 00:02:10
  TRACK 05 AUDIO
    TITLE "0:"
    INDEX 01 00:03:19
  TRACK 06 AUDIO
    TITLE "2:cjc039_0283"
    INDEX 01 00:03:74
  TRACK 07 AUDIO
    TITLE "0:"
    INDEX 01 00:05:30
  TRACK 08 AUDIO
    TITLE "2:cjc039_0284"
    INDEX 01 00:06:08
  TRACK 09 AUDIO
    TITLE "0:"
    INDEX 01 00:07:25
  TRACK 10 AUDIO
    TITLE "2:cjc039_0285"
    INDEX 01 00:08:07
  TRACK 11 AUDIO
    TITLE "0:"
    INDEX 01 00:09:28
  TRACK 12 AUDIO
    TITLE "2:cjc039_0286"
    INDEX 01 00:10:10
  TRACK 13 AUDIO
    TITLE "0:"
    INDEX 01 00:11:44
  TRACK 14 AUDIO
    TITLE "2:cjc039_0287"
    INDEX 01 00:12:24
  TRACK 15 AUDIO
    TITLE "0:"
    INDEX 01 00:13:71
  TRACK 16 AUDIO
    TITLE "2:cjc039_0288"
    INDEX 01 00:14:54
  TRACK 17 AUDIO
    TITLE "0:"
    INDEX 01 00:15:74
  TRACK 18 AUDIO
    TITLE "2:cjc039_0289"
    INDEX 01 00:16:53
  TRACK 19 AUDIO
    TITLE "0:"
    INDEX 01 00:18:01
  TRACK 20 AUDIO
    TITLE "2:cjc039_0290"
    INDEX 01 00:18:54
  TRACK 21 AUDIO
    TITLE "0:"
    INDEX 01 00:20:04
  TRACK 22 AUDIO
    TITLE "2:cjc039_0291"
    INDEX 01 00:20:59
  TRACK 23 AUDIO
    TITLE "0:"
    INDEX 01 00:21:72
  TRACK 24 AUDIO
    TITLE "2:cjc039_0292"
    INDEX 01 00:22:50
  TRACK 25 AUDIO
    TITLE "0:"
    INDEX 01 00:24:16
  TRACK 26 AUDIO
    TITLE "2:cjc039_0293"
    INDEX 01 00:24:67
  TRACK 27 AUDIO
    TITLE "0:"
    INDEX 01 00:26:28
  TRACK 28 AUDIO
    TITLE "2:cjc039_0294"
    INDEX 01 00:27:02
  TRACK 29 AUDIO
    TITLE "0:"
    INDEX 01 00:28:35
  TRACK 30 AUDIO
    TITLE "2:cjc039_0295"
    INDEX 01 00:29:15
  TRACK 31 AUDIO
    TITLE "0:"
    INDEX 01 00:30:50
  TRACK 32 AUDIO
    TITLE "2:cjc039_0296"
    INDEX 01 00:31:29
  TRACK 33 AUDIO
    TITLE "0:"
    INDEX 01 00:32:62
  TRACK 34 AUDIO
    TITLE "2:cjc039_0297"
    INDEX 01 00:33:42
  TRACK 35 AUDIO
    TITLE "0:"
    INDEX 01 00:34:65
  TRACK 36 AUDIO
    TITLE "2:cjc039_0298"
    INDEX 01 00:35:43
  TRACK 37 AUDIO
    TITLE "0:"
    INDEX 01 00:37:20
  TRACK 38 AUDIO
    TITLE "2:cjc039_0299"
    INDEX 01 00:37:71
  TRACK 39 AUDIO
    TITLE "0:"
    INDEX 01 00:39:52
  TRACK 40 AUDIO
    TITLE "2:cjc039_0300"
    INDEX 01 00:40:32
  TRACK 41 AUDIO
    TITLE "0:"
    INDEX 01 00:41:73
  TRACK 42 AUDIO
    TITLE "2:cjc039_0301"
    INDEX 01 00:42:51
  TRACK 43 AUDIO
    TITLE "0:"
    INDEX 01 00:43:74
  TRACK 44 AUDIO
    TITLE "2:cjc039_0302"
    INDEX 01 00:44:52
  TRACK 45 AUDIO
    TITLE "0:"
    INDEX 01 00:46:21
  TRACK 46 AUDIO
    TITLE "2:cjc039_0303"
    INDEX 01 00:46:72
  TRACK 47 AUDIO
    TITLE "0:"
    INDEX 01 00:48:22
  TRACK 48 AUDIO
    TITLE "2:cjc039_0304"
    INDEX 01 00:48:73
  TRACK 49 AUDIO
    TITLE "0:"
    INDEX 01 00:50:31
  TRACK 50 AUDIO
    TITLE "2:cjc039_0305"
    INDEX 01 00:51:13
  TRACK 51 AUDIO
    TITLE "0:"
    INDEX 01 00:52:47
  TRACK 52 AUDIO
    TITLE "2:cjc039_0306"
    INDEX 01 00:53:19
  TRACK 53 AUDIO
    TITLE "0:"
    INDEX 01 00:54:62
  TRACK 54 AUDIO
    TITLE "2:cjc039_0307"
    INDEX 01 00:55:36
  TRACK 55 AUDIO
    TITLE "0:"
    INDEX 01 00:56:65
  TRACK 56 AUDIO
    TITLE "2:cjc039_0308"
    INDEX 01 00:57:35
  TRACK 57 AUDIO
    TITLE "0:"
    INDEX 01 00:58:56
  TRACK 58 AUDIO
    TITLE "2:cjc039_0309"
    INDEX 01 00:59:34
  TRACK 59 AUDIO
    TITLE "0:"
    INDEX 01 01:01:03
  TRACK 60 AUDIO
    TITLE "2:cjc039_0310"
    INDEX 01 01:01:52
  TRACK 61 AUDIO
    TITLE "0:"
    INDEX 01 01:02:61
  TRACK 62 AUDIO
    TITLE "2:cjc039_0311"
    INDEX 01 01:03:43
  TRACK 63 AUDIO
    TITLE "0:"
    INDEX 01 01:05:26
  TRACK 64 AUDIO
    TITLE "2:cjc039_0312"
    INDEX 01 01:06:04
  TRACK 65 AUDIO
    TITLE "0:"
    INDEX 01 01:07:49
  TRACK 66 AUDIO
    TITLE "2:cjc039_0313"
    INDEX 01 01:08:25
  TRACK 67 AUDIO
    TITLE "0:"
    INDEX 01 01:09:56
  TRACK 68 AUDIO
    TITLE "2:cjc039_0314"
    INDEX 01 01:10:37
  TRACK 69 AUDIO
    TITLE "0:"
    INDEX 01 01:11:66
  TRACK 70 AUDIO
    TITLE "2:cjc039_0315"
    INDEX 01 01:12:48
  TRACK 71 AUDIO
    TITLE "0:"
    INDEX 01 01:13:65
  TRACK 72 AUDIO
    TITLE "2:cjc039_0316"
    INDEX 01 01:14:39
  TRACK 73 AUDIO
    TITLE "0:"
    INDEX 01 01:15:46
  TRACK 74 AUDIO
    TITLE "2:cjc039_0317"
    INDEX 01 01:16:20
  TRACK 75 AUDIO
    TITLE "0:"
    INDEX 01 01:17:71
  TRACK 76 AUDIO
    TITLE "2:cjc039_0318"
    INDEX 01 01:18:51
  TRACK 77 AUDIO
    TITLE "0:"
    INDEX 01 01:20:16
  TRACK 78 AUDIO
    TITLE "2:cjc039_0319"
    INDEX 01 01:20:73
  TRACK 79 AUDIO
    TITLE "0:"
    INDEX 01 01:22:25
  TRACK 80 AUDIO
    TITLE "2:cjc039_0320"
    INDEX 01 01:23:07
  TRACK 81 AUDIO
    TITLE "0:"
    INDEX 01 01:24:37
